<svg width="190" height="42" viewBox="0 0 190 42" fill="none" xmlns="http://www.w3.org/2000/svg">
<circle cx="21" cy="21" r="21" fill="white"/>
<path d="M41.9997 21.0122C42.0501 32.3368 32.8563 41.9847 21.0188 42C9.47006 42.0135 -0.00899213 32.7065 6.40149e-06 20.9906C0.00900493 9.12167 9.67703 -0.0242401 21.0386 4.82629e-05C32.671 0.0243366 42.0564 9.51748 41.9997 21.0122ZM21.8295 12.7208C21.7926 16.1086 24.6335 18.8541 27.9629 18.8532C31.1457 18.8532 34.0909 16.284 34.0981 12.7118C34.1053 9.10638 31.1592 6.5552 27.9935 6.5489C24.7217 6.54261 21.7908 9.2683 21.8295 12.7208Z" fill="#DB353A"/>
<path d="M115.95 34.44V16.2657H109.69V12.9696H125.899V16.2657H119.639V34.44H115.95Z" fill="#DB353A"/>
<path d="M127.363 34.44V18.6244H130.538L130.689 21.2251C131.092 20.338 131.647 19.6526 132.352 19.1688C133.078 18.6648 133.925 18.4128 134.893 18.4128C135.195 18.4128 135.487 18.4329 135.77 18.4732C136.052 18.5136 136.304 18.5841 136.526 18.6849L136.132 22.0718C135.911 21.9912 135.679 21.9408 135.437 21.9206C135.195 21.8803 134.953 21.8601 134.711 21.8601C133.502 21.8601 132.554 22.2633 131.869 23.0697C131.183 23.8761 130.84 24.995 130.84 26.4264V34.44H127.363Z" fill="#DB353A"/>
<path d="M143.541 34.8936C142.735 34.8936 141.989 34.7726 141.304 34.5307C140.638 34.2888 140.054 33.946 139.55 33.5025C139.046 33.059 138.652 32.5348 138.37 31.93C138.088 31.3252 137.947 30.66 137.947 29.9342C137.947 28.9262 138.209 28.0492 138.733 27.3033C139.277 26.5372 140.033 25.9425 141.001 25.5192C141.969 25.0958 143.098 24.8841 144.388 24.8841C145.094 24.8841 145.769 24.9547 146.414 25.0958C147.059 25.2168 147.674 25.3982 148.259 25.6401V24.6422C148.259 23.9366 148.128 23.3217 147.866 22.7976C147.604 22.2532 147.231 21.8299 146.747 21.5275C146.263 21.2251 145.678 21.0739 144.993 21.0739C144.267 21.0739 143.612 21.2654 143.027 21.6484C142.443 22.0315 142.009 22.5657 141.727 23.2512L138.521 22.5254C138.763 21.6384 139.197 20.8723 139.822 20.2272C140.467 19.582 141.233 19.078 142.12 18.7152C143.027 18.3523 144.005 18.1708 145.053 18.1708C146.041 18.1708 146.938 18.3321 147.745 18.6547C148.571 18.9772 149.277 19.4308 149.861 20.0155C150.446 20.6001 150.9 21.2956 151.222 22.102C151.545 22.9084 151.706 23.8056 151.706 24.7934V34.44H148.531L148.41 32.3534C147.987 33.1195 147.352 33.7344 146.505 34.198C145.658 34.6617 144.67 34.8936 143.541 34.8936ZM141.455 29.783C141.455 30.2265 141.576 30.6297 141.818 30.9926C142.06 31.3353 142.392 31.6075 142.816 31.8091C143.259 32.0107 143.773 32.1115 144.358 32.1115C145.104 32.1115 145.769 31.9502 146.354 31.6276C146.938 31.3051 147.402 30.8716 147.745 30.3273C148.087 29.7628 148.259 29.1278 148.259 28.4222V28.0593C147.735 27.8376 147.19 27.6662 146.626 27.5452C146.081 27.4041 145.517 27.3336 144.932 27.3336C143.884 27.3336 143.037 27.5553 142.392 27.9988C141.767 28.4424 141.455 29.0371 141.455 29.783Z" fill="#DB353A"/>
<path d="M162.13 34.8936C161.082 34.8936 160.104 34.6819 159.197 34.2585C158.31 33.8352 157.534 33.2505 156.868 32.5046C156.203 31.7587 155.679 30.8817 155.296 29.8737C154.933 28.8657 154.752 27.7771 154.752 26.6078C154.752 25.4184 154.943 24.3096 155.326 23.2814C155.709 22.2532 156.243 21.3561 156.929 20.59C157.614 19.824 158.411 19.2292 159.318 18.8059C160.245 18.3825 161.243 18.1708 162.312 18.1708C163.36 18.1708 164.317 18.3926 165.184 18.8361C166.051 19.2796 166.767 19.9046 167.331 20.711V11.9414H170.809V34.44H167.634L167.483 31.8998C166.918 32.8272 166.172 33.563 165.245 34.1073C164.317 34.6315 163.279 34.8936 162.13 34.8936ZM162.856 31.7486C163.723 31.7486 164.499 31.5268 165.184 31.0833C165.87 30.6196 166.404 29.9947 166.787 29.2084C167.19 28.4222 167.392 27.5352 167.392 26.5473C167.392 25.5393 167.19 24.6422 166.787 23.856C166.404 23.0697 165.87 22.4548 165.184 22.0113C164.499 21.5476 163.723 21.3158 162.856 21.3158C161.989 21.3158 161.213 21.5476 160.527 22.0113C159.842 22.4548 159.298 23.0697 158.894 23.856C158.511 24.6422 158.32 25.5393 158.32 26.5473C158.32 27.5352 158.511 28.4222 158.894 29.2084C159.298 29.9947 159.842 30.6196 160.527 31.0833C161.213 31.5268 161.989 31.7486 162.856 31.7486Z" fill="#DB353A"/>
<path d="M181.902 34.8936C180.733 34.8936 179.654 34.692 178.666 34.2888C177.699 33.8654 176.852 33.2808 176.126 32.5348C175.401 31.7889 174.836 30.912 174.433 29.904C174.05 28.8758 173.858 27.7468 173.858 26.5171C173.858 25.3276 174.05 24.2289 174.433 23.2209C174.836 22.2129 175.38 21.336 176.066 20.59C176.771 19.824 177.598 19.2292 178.545 18.8059C179.493 18.3825 180.521 18.1708 181.63 18.1708C182.739 18.1708 183.747 18.3724 184.654 18.7756C185.581 19.1587 186.378 19.7131 187.043 20.4388C187.728 21.1646 188.253 22.0315 188.615 23.0395C188.978 24.0273 189.16 25.126 189.16 26.3356V27.3638H177.457C177.558 28.2912 177.8 29.0976 178.183 29.783C178.586 30.4483 179.1 30.9624 179.725 31.3252C180.35 31.6881 181.076 31.8696 181.902 31.8696C183.555 31.8696 184.845 31.1337 185.773 29.662L188.827 30.8414C188.464 31.668 187.93 32.3937 187.224 33.0187C186.539 33.6235 185.733 34.0872 184.805 34.4097C183.898 34.7323 182.93 34.8936 181.902 34.8936ZM181.63 20.9832C180.924 20.9832 180.289 21.1444 179.725 21.467C179.181 21.7896 178.717 22.2432 178.334 22.8278C177.951 23.4124 177.689 24.0979 177.548 24.8841H185.531C185.41 24.0979 185.178 23.4124 184.835 22.8278C184.493 22.2432 184.039 21.7896 183.475 21.467C182.93 21.1444 182.315 20.9832 181.63 20.9832Z" fill="#DB353A"/>
<path d="M62.6472 35.0447C61.3973 35.0447 60.2179 34.8633 59.1091 34.5004C58.0205 34.1375 57.0225 33.6235 56.1153 32.9582C55.2283 32.2727 54.4622 31.4663 53.8171 30.539C53.172 29.6116 52.668 28.5734 52.3051 27.4243C51.9624 26.2751 51.791 25.0454 51.791 23.735C51.791 22.4246 51.9624 21.1948 52.3051 20.0457C52.668 18.8966 53.172 17.8583 53.8171 16.931C54.4622 15.9835 55.2384 15.167 56.1456 14.4815C57.0528 13.7961 58.0507 13.2719 59.1393 12.9091C60.2481 12.5462 61.4275 12.3647 62.6774 12.3647C63.9273 12.3647 65.0966 12.5462 66.1853 12.9091C67.2941 13.2719 68.292 13.7961 69.179 14.4815C70.0862 15.1468 70.8624 15.9431 71.5075 16.8705C72.1526 17.7979 72.6465 18.8361 72.9893 19.9852C73.332 21.1343 73.5033 22.3641 73.5033 23.6745C73.5033 24.9849 73.3219 26.2147 72.959 27.3638C72.6163 28.5129 72.1224 29.5612 71.4773 30.5087C70.8321 31.4361 70.056 32.2425 69.1488 32.9279C68.2617 33.6134 67.2638 34.1375 66.155 34.5004C65.0664 34.8633 63.8971 35.0447 62.6472 35.0447ZM62.6472 31.6579C63.6753 31.6579 64.6128 31.4663 65.4595 31.0833C66.3264 30.6801 67.0723 30.1257 67.6973 29.4201C68.3222 28.7145 68.8061 27.8779 69.1488 26.9102C69.5117 25.9223 69.6931 24.8539 69.6931 23.7047C69.6931 22.5556 69.5117 21.4972 69.1488 20.5295C68.8061 19.5417 68.3222 18.695 67.6973 17.9894C67.0723 17.2838 66.3264 16.7395 65.4595 16.3564C64.6128 15.9532 63.6753 15.7516 62.6472 15.7516C61.619 15.7516 60.6715 15.9532 59.8046 16.3564C58.9579 16.7395 58.2221 17.2838 57.5971 17.9894C56.9721 18.695 56.4782 19.5417 56.1153 20.5295C55.7726 21.4972 55.6013 22.5556 55.6013 23.7047C55.6013 24.8539 55.7726 25.9223 56.1153 26.9102C56.4782 27.8779 56.9721 28.7145 57.5971 29.4201C58.2221 30.1257 58.9579 30.6801 59.8046 31.0833C60.6715 31.4663 61.619 31.6579 62.6472 31.6579Z" fill="#373E54"/>
<path d="M76.7563 34.4399V18.6244H79.9315L80.0524 20.8017C80.5161 19.9953 81.1612 19.3603 81.9878 18.8966C82.8345 18.4127 83.8022 18.1708 84.8908 18.1708C86.0803 18.1708 87.1084 18.4531 87.9753 19.0175C88.8623 19.582 89.5478 20.3783 90.0316 21.4065C90.5155 22.4347 90.7574 23.6443 90.7574 25.0353V34.4399H87.2798V25.4284C87.2798 24.1382 86.9875 23.1302 86.4028 22.4044C85.8383 21.6787 85.042 21.3158 84.0139 21.3158C83.2881 21.3158 82.6329 21.4871 82.0483 21.8299C81.4838 22.1726 81.0403 22.6363 80.7177 23.2209C80.3951 23.8055 80.2339 24.4809 80.2339 25.247V34.4399H76.7563Z" fill="#373E54"/>
<path d="M101.853 34.8935C100.684 34.8935 99.605 34.6919 98.6172 34.2887C97.6495 33.8654 96.8028 33.2807 96.077 32.5348C95.3513 31.7889 94.7868 30.9119 94.3836 29.9039C94.0005 28.8758 93.809 27.7468 93.809 26.5171C93.809 25.3276 94.0005 24.2289 94.3836 23.2209C94.7868 22.2129 95.3311 21.3359 96.0165 20.59C96.7221 19.8239 97.5487 19.2292 98.4962 18.8059C99.4437 18.3825 100.472 18.1708 101.581 18.1708C102.69 18.1708 103.698 18.3724 104.605 18.7756C105.532 19.1587 106.328 19.7131 106.994 20.4388C107.679 21.1646 108.203 22.0315 108.566 23.0395C108.929 24.0273 109.11 25.126 109.11 26.3356V27.3638H97.4076C97.5084 28.2911 97.7503 29.0975 98.1333 29.783C98.5365 30.4483 99.0506 30.9623 99.6756 31.3252C100.301 31.6881 101.026 31.8695 101.853 31.8695C103.506 31.8695 104.796 31.1337 105.724 29.662L108.778 30.8414C108.415 31.6679 107.881 32.3937 107.175 33.0187C106.49 33.6235 105.683 34.0871 104.756 34.4097C103.849 34.7323 102.881 34.8935 101.853 34.8935ZM101.581 20.9831C100.875 20.9831 100.24 21.1444 99.6756 21.467C99.1313 21.7895 98.6676 22.2431 98.2845 22.8278C97.9015 23.4124 97.6394 24.0979 97.4983 24.8841H105.482C105.361 24.0979 105.129 23.4124 104.786 22.8278C104.443 22.2431 103.99 21.7895 103.425 21.467C102.881 21.1444 102.266 20.9831 101.581 20.9831Z" fill="#373E54"/>
</svg>
